# xmcd CD Database Entry
#
# Track frame offsets:
# 187
# 22512
# 42007
# 62002
# 82110
# 101815
# 121560
# 138362
# 159815
# 183540
# 205505
# 227090
# 252180
# 274112
# 296182
#
# Disc length: 4218 seconds
#
# Revision: 3
# Processed by: cddbd v1.4PL0 Copyright (c) Steve Scherf et al.
# Submitted via: tcd 2.0b
#
DISCID=c110780f
DTITLE=Starship - Best Selection
DYEAR=1900
DGENRE=Rock
TTITLE0=We Built This City
TTITLE1=It's Not Over ('Til It's Over)
TTITLE2=Beat Patrol
TTITLE3=The Burn
TTITLE4=Don't Lose Any Sleep
TTITLE5=Good Heart
TTITLE6=Tomorrow Doesn't Matter Tonight
TTITLE7=Wild Again
TTITLE8=Before I Go
TTITLE9=I Didn't Mean To Stay All Night
TTITLE10=Set The Night To Music
TTITLE11=I'll Be There
TTITLE12=It's Not Enough
TTITLE13=Sara
TTITLE14=Nothing's Gonna Stop Us Now
EXTD=ID3G: 17
EXTT0=
EXTT1=
EXTT2=
EXTT3=
EXTT4=
EXTT5=
EXTT6=
EXTT7=
EXTT8=
EXTT9=
EXTT10=
EXTT11=
EXTT12=
EXTT13=
EXTT14=
PLAYORDER=
